<svg width="32" height="32" viewBox="0 0 32 32" fill="none" xmlns="http://www.w3.org/2000/svg">
<path d="M5.5 27.6667H26.5" stroke="#9066D7" stroke-width="1.5" stroke-linecap="round" stroke-linejoin="round"/>
<path d="M8.53331 11.7766H6.66667C6.025 11.7766 5.5 12.3016 5.5 12.9433V22.9999C5.5 23.6416 6.025 24.1666 6.66667 24.1666H8.53331C9.17497 24.1666 9.69997 23.6416 9.69997 22.9999V12.9433C9.69997 12.3016 9.17497 11.7766 8.53331 11.7766Z" stroke="#9066D7" stroke-width="1.5" stroke-linecap="round" stroke-linejoin="round"/>
<path d="M16.9333 8.05493H15.0667C14.425 8.05493 13.9 8.57993 13.9 9.2216V22.9999C13.9 23.6416 14.425 24.1666 15.0667 24.1666H16.9333C17.575 24.1666 18.1 23.6416 18.1 22.9999V9.2216C18.1 8.57993 17.575 8.05493 16.9333 8.05493Z" stroke="#9066D7" stroke-width="1.5" stroke-linecap="round" stroke-linejoin="round"/>
<path d="M25.3333 4.33325H23.4667C22.825 4.33325 22.3 4.85825 22.3 5.49992V22.9999C22.3 23.6416 22.825 24.1666 23.4667 24.1666H25.3333C25.975 24.1666 26.5 23.6416 26.5 22.9999V5.49992C26.5 4.85825 25.975 4.33325 25.3333 4.33325Z" stroke="#9066D7" stroke-width="1.5" stroke-linecap="round" stroke-linejoin="round"/>
</svg>
