<svg width="32" height="32" viewBox="0 0 32 32" fill="none" xmlns="http://www.w3.org/2000/svg">
<path d="M23.2275 14.1388V18.6388C23.2275 18.9313 23.2163 19.2125 23.1825 19.4825C22.9238 22.52 21.135 24.0275 17.8388 24.0275H17.3888C17.1075 24.0275 16.8375 24.1625 16.6687 24.3875L15.3188 26.1875C14.7225 26.9862 13.755 26.9862 13.1587 26.1875L11.8087 24.3875C11.6625 24.1962 11.3363 24.0275 11.0888 24.0275H10.6388C7.05001 24.0275 5.25 23.1388 5.25 18.6388V14.1388C5.25 10.8425 6.76876 9.05376 9.79501 8.79501C10.065 8.76126 10.3463 8.75 10.6388 8.75H17.8388C21.4275 8.75 23.2275 10.55 23.2275 14.1388Z" stroke="#9066D7" stroke-width="1.5" stroke-miterlimit="10" stroke-linecap="round" stroke-linejoin="round"/>
<path d="M27.7275 9.63876V14.1388C27.7275 17.4463 26.2088 19.2238 23.1825 19.4825C23.2163 19.2125 23.2275 18.9313 23.2275 18.6388V14.1388C23.2275 10.55 21.4275 8.75 17.8388 8.75H10.6388C10.3463 8.75 10.065 8.76126 9.79501 8.79501C10.0538 5.76876 11.8425 4.25 15.1388 4.25H22.3388C25.9275 4.25 27.7275 6.05001 27.7275 9.63876Z" stroke="#9066D7" stroke-width="1.5" stroke-miterlimit="10" stroke-linecap="round" stroke-linejoin="round"/>
<path d="M18.1824 16.9062H18.1926" stroke="#9066D7" stroke-width="2" stroke-linecap="round" stroke-linejoin="round"/>
<path d="M14.2449 16.9062H14.2551" stroke="#9066D7" stroke-width="2" stroke-linecap="round" stroke-linejoin="round"/>
<path d="M10.3074 16.9062H10.3176" stroke="#9066D7" stroke-width="2" stroke-linecap="round" stroke-linejoin="round"/>
</svg>
