<svg width="25" height="24" viewBox="0 0 25 24" fill="none" xmlns="http://www.w3.org/2000/svg">
<path opacity="0.4" d="M18.6939 10.79V14.79C18.6939 15.05 18.6839 15.3 18.6539 15.54C18.4239 18.24 16.8339 19.58 13.9039 19.58H13.5039C13.2539 19.58 13.0139 19.7 12.8639 19.9L11.6639 21.5C11.1339 22.21 10.2739 22.21 9.74387 21.5L8.54385 19.9C8.41385 19.73 8.12387 19.58 7.90387 19.58H7.50388C4.31388 19.58 2.71387 18.79 2.71387 14.79V10.79C2.71387 7.86001 4.06388 6.27001 6.75388 6.04001C6.99388 6.01001 7.24388 6 7.50388 6H13.9039C17.0939 6 18.6939 7.60001 18.6939 10.79Z" fill="#737373"/>
<path d="M10.7041 14C10.1441 14 9.7041 13.55 9.7041 13C9.7041 12.45 10.1541 12 10.7041 12C11.2541 12 11.7041 12.45 11.7041 13C11.7041 13.55 11.2641 14 10.7041 14Z" fill="#737373"/>
<path d="M14.2041 14C13.6441 14 13.2041 13.55 13.2041 13C13.2041 12.45 13.6541 12 14.2041 12C14.7541 12 15.2041 12.45 15.2041 13C15.2041 13.55 14.7541 14 14.2041 14Z" fill="#737373"/>
<path d="M7.21387 14C6.65387 14 6.21387 13.55 6.21387 13C6.21387 12.45 6.66387 12 7.21387 12C7.76387 12 8.21387 12.45 8.21387 13C8.21387 13.55 7.76387 14 7.21387 14Z" fill="#737373"/>
<path d="M22.6939 6.79001V10.79C22.6939 13.73 21.3439 15.31 18.6539 15.54C18.6839 15.3 18.6939 15.05 18.6939 14.79V10.79C18.6939 7.60001 17.0939 6 13.9039 6H7.50391C7.24391 6 6.99391 6.01001 6.75391 6.04001C6.98391 3.35001 8.57391 2 11.5039 2H17.9039C21.0939 2 22.6939 3.60001 22.6939 6.79001Z" fill="#737373"/>
</svg>
