<svg width="32" height="32" viewBox="0 0 32 32" fill="none" xmlns="http://www.w3.org/2000/svg">
<path d="M12 15.4501C12 16.1559 12.525 16.7334 13.1637 16.7334H14.4762C15.0362 16.7334 15.4912 16.2293 15.4912 15.6151C15.4912 14.9459 15.2112 14.7076 14.8 14.5518L12.7 13.7818C12.28 13.6259 12 13.3876 12 12.7184C12 12.1043 12.455 11.6001 13.015 11.6001H14.3275C14.975 11.6093 15.5 12.1776 15.5 12.8834" stroke="#9066D7" stroke-linecap="round" stroke-linejoin="round"/>
<path d="M13.75 16.7791V17.4574" stroke="#9066D7" stroke-linecap="round" stroke-linejoin="round"/>
<path d="M13.75 10.8757V11.5907" stroke="#9066D7" stroke-linecap="round" stroke-linejoin="round"/>
<path d="M13.7413 21.4816C17.6024 21.4816 20.7325 18.2024 20.7325 14.1574C20.7325 10.1124 17.6024 6.83325 13.7413 6.83325C9.88009 6.83325 6.75 10.1124 6.75 14.1574C6.75 18.2024 9.88009 21.4816 13.7413 21.4816Z" stroke="#9066D7" stroke-linecap="round" stroke-linejoin="round"/>
<path d="M16.3575 23.2234C17.145 24.3876 18.4313 25.1484 19.9013 25.1484C22.29 25.1484 24.2325 23.1134 24.2325 20.6109C24.2325 19.0892 23.515 17.7417 22.4213 16.9167" stroke="#9066D7" stroke-linecap="round" stroke-linejoin="round"/>
</svg>
