<svg width="17" height="18" viewBox="0 0 17 18" fill="none" xmlns="http://www.w3.org/2000/svg">
<path d="M5.66663 8.5499C5.66663 9.1274 6.09163 9.5999 6.60871 9.5999H7.67121C8.12454 9.5999 8.49288 9.1874 8.49288 8.6849C8.49288 8.1374 8.26621 7.9424 7.93329 7.8149L6.23329 7.1849C5.89329 7.0574 5.66663 6.8624 5.66663 6.3149C5.66663 5.8124 6.03496 5.3999 6.48829 5.3999H7.55079C8.07496 5.4074 8.49996 5.8724 8.49996 6.4499" stroke="#9066D7" stroke-linecap="round" stroke-linejoin="round"/>
<path d="M7.08337 9.63745V10.1925" stroke="#9066D7" stroke-linecap="round" stroke-linejoin="round"/>
<path d="M7.08337 4.80762V5.39262" stroke="#9066D7" stroke-linecap="round" stroke-linejoin="round"/>
<path d="M7.07621 13.485C10.2019 13.485 12.7358 10.8021 12.7358 7.4925C12.7358 4.18293 10.2019 1.5 7.07621 1.5C3.95051 1.5 1.41663 4.18293 1.41663 7.4925C1.41663 10.8021 3.95051 13.485 7.07621 13.485Z" stroke="#9066D7" stroke-linecap="round" stroke-linejoin="round"/>
<path d="M9.19421 14.91C9.83171 15.8625 10.873 16.485 12.063 16.485C13.9967 16.485 15.5692 14.82 15.5692 12.7725C15.5692 11.5275 14.9884 10.425 14.103 9.75" stroke="#9066D7" stroke-linecap="round" stroke-linejoin="round"/>
</svg>
