<svg width="32" height="32" viewBox="0 0 32 32" fill="none" xmlns="http://www.w3.org/2000/svg">
<path d="M16.175 21.25V23.7" stroke="#9066D7" stroke-width="1.5" stroke-linecap="round" stroke-linejoin="round"/>
<path d="M10.3417 27.6667H22.0083V26.5001C22.0083 25.2167 20.9583 24.1667 19.675 24.1667H12.675C11.3917 24.1667 10.3417 25.2167 10.3417 26.5001V27.6667V27.6667Z" stroke="#9066D7" stroke-width="1.5" stroke-miterlimit="10"/>
<path d="M9.175 27.6667H23.175" stroke="#9066D7" stroke-width="1.5" stroke-linecap="round" stroke-linejoin="round"/>
<path d="M16 20.6666C11.485 20.6666 7.83333 17.0149 7.83333 12.4999V8.99992C7.83333 6.42159 9.92166 4.33325 12.5 4.33325H19.5C22.0783 4.33325 24.1667 6.42159 24.1667 8.99992V12.4999C24.1667 17.0149 20.515 20.6666 16 20.6666Z" stroke="#9066D7" stroke-width="1.5" stroke-linecap="round" stroke-linejoin="round"/>
<path d="M8.38167 15.5916C7.50667 15.3116 6.73667 14.7983 6.13 14.1916C5.08 13.025 4.38 11.625 4.38 9.99162C4.38 8.35828 5.66334 7.07495 7.29667 7.07495H8.055C7.82167 7.61162 7.705 8.20662 7.705 8.82495V12.325C7.705 13.4916 7.95 14.5883 8.38167 15.5916Z" stroke="#9066D7" stroke-width="1.5" stroke-linecap="round" stroke-linejoin="round"/>
<path d="M23.6183 15.5916C24.4933 15.3116 25.2633 14.7983 25.87 14.1916C26.92 13.025 27.62 11.625 27.62 9.99162C27.62 8.35828 26.3367 7.07495 24.7033 7.07495H23.945C24.1783 7.61162 24.295 8.20662 24.295 8.82495V12.325C24.295 13.4916 24.05 14.5883 23.6183 15.5916Z" stroke="#9066D7" stroke-width="1.5" stroke-linecap="round" stroke-linejoin="round"/>
</svg>
