<svg width="25" height="24" viewBox="0 0 25 24" fill="none" xmlns="http://www.w3.org/2000/svg">
<path opacity="0.4" d="M7.7992 22H17.0492C19.7392 22 21.9192 19.82 21.9192 17.13V8.37C21.9192 5.68 19.7392 3.5 17.0492 3.5H7.7992C5.1092 3.5 2.9292 5.68 2.9292 8.37V17.12C2.9292 19.82 5.1092 22 7.7992 22Z" fill="#777777"/>
<path d="M8.71924 6.29C8.29924 6.29 7.96924 5.95 7.96924 5.54V2.75C7.96924 2.34 8.29924 2 8.71924 2C9.13924 2 9.46924 2.34 9.46924 2.75V5.53C9.46924 5.95 9.13924 6.29 8.71924 6.29Z" fill="#777777"/>
<path d="M16.1392 6.29C15.7192 6.29 15.3892 5.95 15.3892 5.54V2.75C15.3892 2.33 15.7292 2 16.1392 2C16.5592 2 16.8892 2.34 16.8892 2.75V5.53C16.8892 5.95 16.5592 6.29 16.1392 6.29Z" fill="#777777"/>
<path d="M15.2091 13.71H7.78906C7.36906 13.71 7.03906 13.37 7.03906 12.96C7.03906 12.55 7.37906 12.21 7.78906 12.21H15.2091C15.6291 12.21 15.9591 12.55 15.9591 12.96C15.9591 13.37 15.6291 13.71 15.2091 13.71Z" fill="#777777"/>
<path d="M12.4291 17.42H7.78906C7.36906 17.42 7.03906 17.08 7.03906 16.67C7.03906 16.25 7.37906 15.92 7.78906 15.92H12.4291C12.8491 15.92 13.1791 16.26 13.1791 16.67C13.1791 17.08 12.8491 17.42 12.4291 17.42Z" fill="#777777"/>
</svg>
