<svg width="32" height="32" viewBox="0 0 32 32" fill="none" xmlns="http://www.w3.org/2000/svg">
<path d="M19 28H13C12.4697 27.9995 11.9613 27.7886 11.5864 27.4136C11.2114 27.0387 11.0005 26.5303 11 26V21H6C5.46973 20.9995 4.96133 20.7886 4.58637 20.4136C4.21141 20.0387 4.00053 19.5303 4 19V13C4.00053 12.4697 4.21141 11.9613 4.58637 11.5864C4.96133 11.2114 5.46973 11.0005 6 11H11V6C11.0005 5.46973 11.2114 4.96133 11.5864 4.58637C11.9613 4.21141 12.4697 4.00053 13 4H19C19.5303 4.00053 20.0387 4.21141 20.4136 4.58637C20.7886 4.96133 20.9995 5.46973 21 6V11H26C26.5303 11.0005 27.0387 11.2114 27.4136 11.5864C27.7886 11.9613 27.9995 12.4697 28 13V19C27.9992 19.5302 27.7882 20.0384 27.4133 20.4133C27.0384 20.7882 26.5302 20.9992 26 21H21V26C20.9992 26.5302 20.7882 27.0384 20.4133 27.4133C20.0384 27.7882 19.5302 27.9992 19 28ZM6 13V19H13V26H19V19H26V13H19V6H13V13H6Z" fill="#9066D7"/>
</svg>
