<svg width="32" height="32" viewBox="0 0 32 32" fill="none" xmlns="http://www.w3.org/2000/svg">
<path d="M22.5 16.6499V20.3499C22.5 23.4699 19.59 25.9999 16 25.9999C12.41 25.9999 9.5 23.4699 9.5 20.3499V16.6499C9.5 19.7699 12.41 21.9999 16 21.9999C19.59 21.9999 22.5 19.7699 22.5 16.6499Z" fill="#F97316"/>
<path opacity="0.4" d="M22.5 11.6499V16.6499C22.5 19.7699 19.59 21.9999 16 21.9999C12.41 21.9999 9.5 19.7699 9.5 16.6499V11.6499C9.5 12.5599 9.75 13.3999 10.19 14.1199C11.26 15.8799 13.46 16.9999 16 16.9999C18.54 16.9999 20.74 15.8799 21.81 14.1199C22.25 13.3999 22.5 12.5599 22.5 11.6499Z" fill="#F97316"/>
<path d="M22.5 11.65C22.5 12.56 22.25 13.4 21.81 14.12C20.74 15.88 18.54 17 16 17C13.46 17 11.26 15.88 10.19 14.12C9.75 13.4 9.5 12.56 9.5 11.65C9.5 8.53 12.41 6 16 6C17.8 6 19.42 6.63 20.6 7.65C21.77 8.68 22.5 10.09 22.5 11.65Z" fill="#F97316"/>
</svg>
