<svg width="32" height="32" viewBox="0 0 32 32" fill="none" xmlns="http://www.w3.org/2000/svg">
<path d="M20.9 20.9C23.6 18.2 23.6 13.7 20.9 11M11.1 11.1C8.4 13.8 8.4 18.3 11.1 21" stroke="#F97316" stroke-width="1.5" stroke-miterlimit="10" stroke-linecap="round" stroke-linejoin="round"/>
<path d="M13.7 17.6C13.7 18.5 14.4 19.2 15.3 19.2H17C17.7 19.2 18.4 18.6 18.4 17.8C18.4 16.9 18 16.6 17.5 16.4L14.7 15.4C14 15.3 13.7 15 13.7 14.2C13.7 13.4 14.3 12.8 15.1 12.8H16.9C17.8 12.8 18.5 13.5 18.5 14.4M16 11.8V20.2" stroke="#F97316" stroke-width="1.5" stroke-linecap="round" stroke-linejoin="round"/>
<path d="M16 26C21.523 26 26 21.523 26 16C26 10.477 21.523 6 16 6C10.477 6 6 10.477 6 16C6 21.523 10.477 26 16 26Z" stroke="#F97316" stroke-width="1.5" stroke-miterlimit="10" stroke-linecap="round" stroke-linejoin="round"/>
</svg>
