<svg width="32" height="32" viewBox="0 0 32 32" fill="none" xmlns="http://www.w3.org/2000/svg">
<path d="M8.41667 13.8334H10.5833C12.75 13.8334 13.8333 12.7501 13.8333 10.5834V8.41675C13.8333 6.25008 12.75 5.16675 10.5833 5.16675H8.41667C6.25001 5.16675 5.16667 6.25008 5.16667 8.41675V10.5834C5.16667 12.7501 6.25001 13.8334 8.41667 13.8334Z" stroke="#9066D7" stroke-width="1.5" stroke-miterlimit="10" stroke-linecap="round" stroke-linejoin="round"/>
<path d="M21.4167 13.8334H23.5833C25.75 13.8334 26.8333 12.7501 26.8333 10.5834V8.41675C26.8333 6.25008 25.75 5.16675 23.5833 5.16675H21.4167C19.25 5.16675 18.1667 6.25008 18.1667 8.41675V10.5834C18.1667 12.7501 19.25 13.8334 21.4167 13.8334Z" stroke="#9066D7" stroke-width="1.5" stroke-miterlimit="10" stroke-linecap="round" stroke-linejoin="round"/>
<path d="M21.4167 26.8334H23.5833C25.75 26.8334 26.8333 25.7501 26.8333 23.5834V21.4167C26.8333 19.2501 25.75 18.1667 23.5833 18.1667H21.4167C19.25 18.1667 18.1667 19.2501 18.1667 21.4167V23.5834C18.1667 25.7501 19.25 26.8334 21.4167 26.8334Z" stroke="#9066D7" stroke-width="1.5" stroke-miterlimit="10" stroke-linecap="round" stroke-linejoin="round"/>
<path d="M8.41667 26.8334H10.5833C12.75 26.8334 13.8333 25.7501 13.8333 23.5834V21.4167C13.8333 19.2501 12.75 18.1667 10.5833 18.1667H8.41667C6.25001 18.1667 5.16667 19.2501 5.16667 21.4167V23.5834C5.16667 25.7501 6.25001 26.8334 8.41667 26.8334Z" stroke="#9066D7" stroke-width="1.5" stroke-miterlimit="10" stroke-linecap="round" stroke-linejoin="round"/>
</svg>
