<svg width="32" height="32" viewBox="0 0 32 32" fill="none" xmlns="http://www.w3.org/2000/svg">
<path d="M14.3967 14.9641C14.3051 14.9549 14.1951 14.9549 14.0942 14.9641C11.9126 14.8908 10.1801 13.1033 10.1801 10.9033C10.1801 8.65742 11.9951 6.83325 14.2501 6.83325C16.4959 6.83325 18.3201 8.65742 18.3201 10.9033C18.3109 13.1033 16.5784 14.8908 14.3967 14.9641Z" stroke="#9066D7" stroke-linecap="round" stroke-linejoin="round"/>
<path d="M21.0425 8.66675C22.8208 8.66675 24.2508 10.1059 24.2508 11.8751C24.2508 13.6076 22.8758 15.0192 21.1617 15.0834C21.0883 15.0742 21.0058 15.0742 20.9233 15.0834" stroke="#9066D7" stroke-linecap="round" stroke-linejoin="round"/>
<path d="M9.81329 18.3467C7.59495 19.8317 7.59495 22.2517 9.81329 23.7276C12.3341 25.4142 16.4683 25.4142 18.9891 23.7276C21.2075 22.2426 21.2075 19.8226 18.9891 18.3467C16.4775 16.6692 12.3433 16.6692 9.81329 18.3467Z" stroke="#9066D7" stroke-linecap="round" stroke-linejoin="round"/>
<path d="M22.8116 23.3333C23.4716 23.1958 24.095 22.9299 24.6083 22.5358C26.0383 21.4633 26.0383 19.6941 24.6083 18.6216C24.1041 18.2366 23.49 17.9799 22.8391 17.8333" stroke="#9066D7" stroke-linecap="round" stroke-linejoin="round"/>
</svg>
