<svg width="17" height="17" viewBox="0 0 17 17" fill="none" xmlns="http://www.w3.org/2000/svg">
<path d="M6.48831 7.69966C6.41748 7.69258 6.33248 7.69258 6.25456 7.69966C4.56873 7.643 3.22998 6.26175 3.22998 4.56175C3.22998 2.82633 4.63248 1.41675 6.37498 1.41675C8.1104 1.41675 9.51998 2.82633 9.51998 4.56175C9.5129 6.26175 8.17415 7.643 6.48831 7.69966Z" stroke="#9066D7" stroke-linecap="round" stroke-linejoin="round"/>
<path d="M11.6237 2.83325C12.9979 2.83325 14.1029 3.94534 14.1029 5.31242C14.1029 6.65117 13.0404 7.742 11.7158 7.79159C11.6591 7.7845 11.5954 7.7845 11.5316 7.79159" stroke="#9066D7" stroke-linecap="round" stroke-linejoin="round"/>
<path d="M2.94664 10.3133C1.23247 11.4608 1.23247 13.3308 2.94664 14.4712C4.89455 15.7745 8.08914 15.7745 10.0371 14.4712C11.7512 13.3237 11.7512 11.4537 10.0371 10.3133C8.09622 9.017 4.90164 9.017 2.94664 10.3133Z" stroke="#9066D7" stroke-linecap="round" stroke-linejoin="round"/>
<path d="M12.9908 14.1667C13.5008 14.0605 13.9825 13.8551 14.3792 13.5505C15.4842 12.7217 15.4842 11.3547 14.3792 10.5259C13.9896 10.2284 13.515 10.0301 13.0121 9.91675" stroke="#9066D7" stroke-linecap="round" stroke-linejoin="round"/>
</svg>
