<svg width="32" height="32" viewBox="0 0 32 32" fill="none" xmlns="http://www.w3.org/2000/svg">
<path d="M22.0001 20.9195C21.5961 20.9194 21.1963 21.0158 20.8247 21.2031C20.4532 21.3904 20.1177 21.6647 19.8385 22.0093L12.9018 17.4031C13.0362 16.8076 13.0362 16.1809 12.9018 15.5854L19.8385 10.9792C20.3436 11.5973 21.0223 11.9768 21.7475 12.0466C22.4727 12.1165 23.1946 11.8719 23.7779 11.3587C24.3613 10.8454 24.7661 10.0988 24.9165 9.25859C25.0668 8.41841 24.9525 7.54234 24.5949 6.79451C24.2372 6.04667 23.6609 5.47839 22.9737 5.19612C22.2865 4.91384 21.5357 4.93695 20.862 5.26111C20.1882 5.58526 19.6377 6.18823 19.3136 6.95704C18.9894 7.72586 18.914 8.60777 19.1012 9.43756L12.1645 14.0437C11.7502 13.5338 11.2161 13.1819 10.6309 13.0333C10.0456 12.8846 9.43614 12.946 8.88073 13.2095C8.32532 13.4731 7.84943 13.9267 7.51427 14.5121C7.1791 15.0974 7 15.7878 7 16.4942C7 17.2007 7.1791 17.8911 7.51427 18.4764C7.84943 19.0618 8.32532 19.5154 8.88073 19.779C9.43614 20.0425 10.0456 20.1039 10.6309 19.9552C11.2161 19.8065 11.7502 19.4546 12.1645 18.9447L19.1012 23.5509C18.9404 24.2655 18.9732 25.0216 19.195 25.7131C19.4168 26.4046 19.8165 26.9968 20.338 27.4066C20.8594 27.8164 21.4765 28.0232 22.1027 27.9979C22.7288 27.9727 23.3325 27.7168 23.8291 27.266C24.3257 26.8152 24.6902 26.1922 24.8716 25.4845C25.0529 24.7768 25.042 24.0198 24.8402 23.3198C24.6385 22.6198 24.2561 22.0119 23.7467 21.5814C23.2374 21.1509 22.6266 20.9195 22.0001 20.9195Z" fill="#9066D7"/>
</svg>
