<svg width="21" height="21" viewBox="0 0 21 21" fill="none" xmlns="http://www.w3.org/2000/svg">
<path d="M18.865 9.39749L17.675 8.01499C17.4475 7.75249 17.2638 7.26249 17.2638 6.91249V5.42499C17.2638 4.49749 16.5025 3.73624 15.575 3.73624H14.0875C13.7463 3.73624 13.2475 3.55249 12.985 3.32499L11.6025 2.13499C10.9988 1.61874 10.01 1.61874 9.39752 2.13499L8.02377 3.33374C7.76127 3.55249 7.26252 3.73624 6.92127 3.73624H5.40752C4.48002 3.73624 3.71877 4.49749 3.71877 5.42499V6.92124C3.71877 7.26249 3.53502 7.75249 3.31627 8.01499L2.13502 9.40624C1.62752 10.01 1.62752 10.99 2.13502 11.5937L3.31627 12.985C3.53502 13.2475 3.71877 13.7375 3.71877 14.0787V15.575C3.71877 16.5025 4.48002 17.2637 5.40752 17.2637H6.92127C7.26252 17.2637 7.76127 17.4475 8.02377 17.675L9.40627 18.865C10.01 19.3812 10.9988 19.3812 11.6113 18.865L12.9938 17.675C13.2563 17.4475 13.7463 17.2637 14.0963 17.2637H15.5838C16.5113 17.2637 17.2725 16.5025 17.2725 15.575V14.0875C17.2725 13.7462 17.4563 13.2475 17.6838 12.985L18.8738 11.6025C19.3813 10.9987 19.3813 10.0012 18.865 9.39749ZM14.14 8.84624L9.91377 13.0725C9.79127 13.195 9.62502 13.265 9.45002 13.265C9.27502 13.265 9.10877 13.195 8.98627 13.0725L6.86877 10.955C6.61502 10.7012 6.61502 10.2812 6.86877 10.0275C7.12252 9.77374 7.54252 9.77374 7.79627 10.0275L9.45002 11.6812L13.2125 7.91874C13.4663 7.66499 13.8863 7.66499 14.14 7.91874C14.3938 8.17249 14.3938 8.59249 14.14 8.84624Z" fill="#323EAC"/>
</svg>
